<?xml version="1.0" encoding="utf-8"?>
<!-- Generator: Adobe Illustrator 19.2.1, SVG Export Plug-In . SVG Version: 6.00 Build 0)  -->
<svg version="1.1" id="Layer_1" xmlns="http://www.w3.org/2000/svg" xmlns:xlink="http://www.w3.org/1999/xlink" x="0px" y="0px"
   viewBox="0 0 128 128" style="enable-background:new 0 0 128 128;" xml:space="preserve">
<style type="text/css">
  .st0{fill:#E0E0E0;}
</style>
<path class="st0" d="M112,92v8c-14.3-7.2-30.7-11.3-48-11.3S30.3,92.8,16,100v-8c14.3-7.2,30.7-11.3,48-11.3S97.7,84.8,112,92z"/>
<circle class="st0" cx="38" cy="46.7" r="10"/>
<circle class="st0" cx="90.6" cy="46.7" r="10"/>
<path class="st0" d="M96.1,60c-0.8,0.4,1.5,3.8,0,8.6c-0.9,2.9-2.4,3.7-2.2,6.1c0.2,1.8,1.3,4,3,4.5c2.5,0.7,5.6-2.2,6.6-4.9
  C106.1,67.7,97.5,59.3,96.1,60z"/>
</svg>