<?xml version="1.0" encoding="utf-8"?>
<!-- Generator: Adobe Illustrator 19.2.1, SVG Export Plug-In . SVG Version: 6.00 Build 0)  -->
<svg version="1.1" id="Layer_1" xmlns="http://www.w3.org/2000/svg" xmlns:xlink="http://www.w3.org/1999/xlink" x="0px" y="0px"
   viewBox="0 0 128 128" style="enable-background:new 0 0 128 128;" xml:space="preserve">
<style type="text/css">
  .st0{fill:#E0E0E0;}
  .st1{fill:#EEEEEE;}
</style>
<path class="st0" d="M44,26c-16.6,0-30,13.4-30,30s13.4,30,30,30c9.6,0,18.2-4.5,23.7-11.6c1.6-2.1,3-4.4,4-6.9
  C73.2,64,74,60.1,74,56C74,39.4,60.6,26,44,26z M62.4,71.4C58,76.7,51.4,80,44,80c-13.2,0-24-10.8-24-24s10.8-24,24-24
  s24,10.8,24,24c0,3-0.5,5.8-1.5,8.5C65.5,67,64.1,69.3,62.4,71.4z"/>
<path class="st0" d="M53.8,68.7c-1.5,1.1-3.1,2-4.9,2.6c-5.1,3.2-13.9,0.5-14.6,0.3c-2.2-0.7-4.1-1.7-5.7-2.8
  C32.2,73.2,37.8,76,44,76c3.9,0,7.5-1.1,10.5-3C54.4,71.3,54.1,69.8,53.8,68.7z"/>
<path class="st0" d="M109,89.1l-4,6.9L67.7,74.4c1.6-2.1,3-4.4,4-6.9L109,89.1z"/>
<rect x="108.2" y="93.5" transform="matrix(0.5 -0.866 0.866 0.5 -26.6556 144.9232)" class="st0" width="8" height="4"/>
<path class="st1" d="M54.5,73c-3.1,1.9-6.7,3-10.5,3c-6.2,0-11.8-2.8-15.4-7.3c1.6,1.1,3.5,2.1,5.7,2.8c0.7,0.2,11.4,1.6,14.6-0.3
  c1.8-0.6,3.4-1.5,4.9-2.6C54.1,69.8,54.4,71.3,54.5,73z"/>
</svg>
